<?xml version="1.0" encoding="iso-8859-1"?>
<!-- Generator: Adobe Illustrator 19.0.0, SVG Export Plug-In . SVG Version: 6.00 Build 0)  -->
<svg version="1.1" id="Capa_1" xmlns="http://www.w3.org/2000/svg" xmlns:xlink="http://www.w3.org/1999/xlink" x="0px" y="0px"
	 viewBox="0 0 512 512" style="enable-background:new 0 0 512 512;" xml:space="preserve">
<polygon style="fill:#FAC408;" points="352.142,176.7 311.175,126.173 238.326,36.341 352.547,18.17 466.776,0 425.396,108.002 
	403.144,166.084 "/>
<polygon style="fill:#FBD836;" points="416.478,322.442 453.425,287.209 480.699,399.6 507.981,512 397.006,479.423 
	286.022,446.847 369.724,367.032 387.305,350.26 "/>
<polygon style="fill:#F09221;" points="330.049,181.291 359.565,175.152 472.801,151.59 436.592,261.44 400.374,371.28 
	323.356,284.993 309.24,269.188 "/>
<polygon style="fill:#FBD836;" points="274.439,164.484 385.15,197.949 300.815,277.095 216.471,356.241 190.104,243.63 
	163.727,131.019 "/>
<polygon style="fill:#FAC408;" points="207.166,316.496 177.509,367.859 119.673,468.025 61.846,367.859 4.019,267.693 
	119.673,267.693 195.732,267.693 "/>
<polygon style="fill:#F09221;" points="170.658,173.393 138.072,194.36 40.809,256.945 35.242,141.423 29.674,25.892 
	132.505,78.838 235.336,131.784 215.934,144.264 "/>
<g>
	<rect x="68.231" y="292.169" style="fill:#8A520E;" width="17.59" height="17.59"/>
	<rect x="112.206" y="353.734" style="fill:#8A520E;" width="17.59" height="17.59"/>
	<rect x="129.796" y="309.759" style="fill:#8A520E;" width="17.59" height="17.59"/>
	<rect x="59.437" y="81.046" style="fill:#8A520E;" width="17.59" height="17.59"/>
	<rect x="85.821" y="133.816" style="fill:#8A520E;" width="17.59" height="17.59"/>
	<rect x="121.001" y="142.611" style="fill:#8A520E;" width="17.59" height="17.59"/>
	<rect x="208.951" y="177.747" style="fill:#8A520E;" width="17.59" height="17.59"/>
	<rect x="411.236" y="195.337" style="fill:#8A520E;" width="17.59" height="17.59"/>
	<rect x="376.056" y="274.491" style="fill:#8A520E;" width="17.59" height="17.59"/>
	<rect x="252.926" y="212.927" style="fill:#8A520E;" width="17.59" height="17.59"/>
	<rect x="314.491" y="54.661" style="fill:#8A520E;" width="17.59" height="17.59"/>
	<rect x="393.646" y="45.866" style="fill:#8A520E;" width="17.59" height="17.59"/>
	<rect x="349.671" y="89.841" style="fill:#8A520E;" width="17.59" height="17.59"/>
	<rect x="367.261" y="125.021" style="fill:#8A520E;" width="17.59" height="17.59"/>
	<rect x="358.466" y="415.299" style="fill:#8A520E;" width="17.59" height="17.59"/>
	<rect x="402.441" y="432.889" style="fill:#8A520E;" width="17.59" height="17.59"/>
	<rect x="428.826" y="380.119" style="fill:#8A520E;" width="17.59" height="17.59"/>
	<rect x="446.416" y="450.479" style="fill:#8A520E;" width="17.59" height="17.59"/>
	<rect x="296.901" y="204.132" style="fill:#8A520E;" width="17.59" height="17.59"/>
	<rect x="235.336" y="265.696" style="fill:#8A520E;" width="17.59" height="17.59"/>
	<rect x="68.231" y="177.747" style="fill:#8A520E;" width="17.59" height="17.59"/>
	<rect x="103.411" y="98.636" style="fill:#8A520E;" width="17.59" height="17.59"/>
</g>
<g>
</g>
<g>
</g>
<g>
</g>
<g>
</g>
<g>
</g>
<g>
</g>
<g>
</g>
<g>
</g>
<g>
</g>
<g>
</g>
<g>
</g>
<g>
</g>
<g>
</g>
<g>
</g>
<g>
</g>
</svg>
